{
	"asset":{
		"version":"2.0",
		"generator":"Houdini GLTF 2.0 Exporter"
	},
	"accessors":[
		{
			"bufferView":0,
			"componentType":5125,
			"count":822858,
			"type":"SCALAR",
			"min":[0
			],
			"max":[301975
			]
		},
		{
			"bufferView":1,
			"componentType":5126,
			"count":301976,
			"type":"VEC3",
			"min":[-87.9229965,-2.98629713,-59.1973457
			],
			"max":[68.0749588,3.14316559,61.4992142
			]
		},
		{
			"bufferView":2,
			"componentType":5126,
			"count":301976,
			"type":"VEC3",
			"min":[0,1,1
			],
			"max":[0,1,1
			]
		},
		{
			"bufferView":3,
			"componentType":5126,
			"count":301976,
			"type":"VEC4",
			"min":[-0.586174905,-1,-0.937929809,1
			],
			"max":[1,1,0.989426017,1
			]
		},
		{
			"bufferView":4,
			"componentType":5126,
			"count":301976,
			"type":"VEC2",
			"min":[0,0
			],
			"max":[1,1
			]
		},
		{
			"bufferView":5,
			"componentType":5126,
			"count":301976,
			"type":"VEC3",
			"min":[-1,-1,-1
			],
			"max":[1,1,1
			]
		}
	],
	"buffers":[
		{
			"uri":"road_data.bin",
			"byteLength":21409992,
			"name":"main_buffer"
		}
	],
	"bufferViews":[
		{
			"buffer":0,
			"byteLength":3291432,
			"target":34963
		},
		{
			"buffer":0,
			"byteOffset":3291432,
			"byteLength":3623712,
			"target":34962
		},
		{
			"buffer":0,
			"byteOffset":6915144,
			"byteLength":3623712,
			"target":34962
		},
		{
			"buffer":0,
			"byteOffset":10538856,
			"byteLength":4831616,
			"target":34962
		},
		{
			"buffer":0,
			"byteOffset":15370472,
			"byteLength":2415808,
			"target":34962
		},
		{
			"buffer":0,
			"byteOffset":17786280,
			"byteLength":3623712,
			"target":34962
		}
	],
	"nodes":[
		{
			"children":[1
			],
			"name":"Root"
		},
		{
			"name":"scatter",
			"mesh":0
		}
	],
	"meshes":[
		{
			"primitives":[
				{
					"attributes":{
						"POSITION":1,
						"TANGENT":3,
						"COLOR_0":2,
						"NORMAL":5,
						"TEXCOORD_0":4
					},
					"indices":0
				}
			],
			"name":"OUT_road"
		}
	],
	"scenes":[
		{
			"nodes":[0
			]
		}
	],
	"scene":0
}
